<mxfile>
    <diagram id="UOW7m2ev4oPxLiBa1cgc" name="Page-1">
        <mxGraphModel dx="3114" dy="1174" grid="1" gridSize="10" guides="1" tooltips="1" connect="1" arrows="1" fold="1" page="1" pageScale="1" pageWidth="850" pageHeight="1100" math="0" shadow="0">
            <root>
                <mxCell id="0"/>
                <mxCell id="1" parent="0"/>
                <mxCell id="7" value="a" style="edgeStyle=orthogonalEdgeStyle;rounded=0;orthogonalLoop=1;jettySize=auto;html=1;entryX=0;entryY=0.5;entryDx=0;entryDy=0;shape=link;" parent="1" source="2" target="3" edge="1">
                    <mxGeometry relative="1" as="geometry"/>
                </mxCell>
                <mxCell id="2" value="&lt;font style=&quot;font-size: 10px&quot;&gt;Nick Alto&lt;/font&gt;&lt;br&gt;&lt;font style=&quot;font-size: 5px&quot;&gt;Emperor of Evil&lt;/font&gt;" style="rounded=1;whiteSpace=wrap;html=1;fillColor=none;strokeColor=#00FFFF;" parent="1" vertex="1">
                    <mxGeometry x="160" y="920" width="80" height="40" as="geometry"/>
                </mxCell>
                <mxCell id="3" value="&lt;font style=&quot;font-size: 10px&quot;&gt;Vita Alto&lt;/font&gt;&lt;br&gt;&lt;font style=&quot;font-size: 5px&quot;&gt;Leader of the Free World&lt;/font&gt;" style="rounded=1;whiteSpace=wrap;html=1;fontColor=#ffffff;fillColor=none;strokeColor=#FF0080;" parent="1" vertex="1">
                    <mxGeometry x="280" y="920" width="80" height="40" as="geometry"/>
                </mxCell>
                <mxCell id="8" style="edgeStyle=orthogonalEdgeStyle;shape=link;rounded=0;orthogonalLoop=1;jettySize=auto;html=1;exitX=0.5;exitY=0;exitDx=0;exitDy=0;" parent="1" source="4" edge="1">
                    <mxGeometry relative="1" as="geometry">
                        <mxPoint x="260" y="940" as="targetPoint"/>
                    </mxGeometry>
                </mxCell>
                <mxCell id="4" value="&lt;font style=&quot;font-size: 10px&quot;&gt;Holly Alto&lt;/font&gt;&lt;br&gt;&lt;span style=&quot;font-size: 5px&quot;&gt;-&lt;/span&gt;" style="rounded=1;whiteSpace=wrap;html=1;fontColor=#ffffff;fillColor=none;strokeColor=#FF0080;" parent="1" vertex="1">
                    <mxGeometry x="220" y="1000" width="80" height="40" as="geometry"/>
                </mxCell>
                <mxCell id="10" style="edgeStyle=orthogonalEdgeStyle;shape=link;rounded=0;orthogonalLoop=1;jettySize=auto;html=1;entryX=0.5;entryY=0;entryDx=0;entryDy=0;exitX=0.5;exitY=0;exitDx=0;exitDy=0;" parent="1" source="5" target="2" edge="1">
                    <mxGeometry relative="1" as="geometry"/>
                </mxCell>
                <mxCell id="5" value="&lt;font style=&quot;font-size: 10px&quot;&gt;Bert Alto&lt;/font&gt;&lt;br&gt;&lt;span style=&quot;font-size: 5px&quot;&gt;Swimming in Cash&lt;br&gt;&lt;/span&gt;" style="rounded=1;whiteSpace=wrap;html=1;fillColor=none;strokeColor=#00FFFF;" parent="1" vertex="1">
                    <mxGeometry x="40" y="920" width="80" height="40" as="geometry"/>
                </mxCell>
                <mxCell id="6" value="&lt;span style=&quot;font-size: 10px&quot;&gt;Sandi French&lt;/span&gt;&lt;br&gt;&lt;span style=&quot;font-size: 5px&quot;&gt;-&lt;/span&gt;" style="rounded=1;whiteSpace=wrap;html=1;fontColor=#ffffff;fillColor=none;strokeColor=#FF0080;" parent="1" vertex="1">
                    <mxGeometry x="-480" y="720" width="80" height="40" as="geometry"/>
                </mxCell>
                <mxCell id="16" style="edgeStyle=orthogonalEdgeStyle;shape=link;rounded=0;orthogonalLoop=1;jettySize=auto;html=1;entryX=0.5;entryY=0;entryDx=0;entryDy=0;" parent="1" source="11" target="14" edge="1">
                    <mxGeometry relative="1" as="geometry"/>
                </mxCell>
                <mxCell id="17" style="edgeStyle=orthogonalEdgeStyle;shape=link;rounded=0;orthogonalLoop=1;jettySize=auto;html=1;" parent="1" source="11" target="15" edge="1">
                    <mxGeometry relative="1" as="geometry"/>
                </mxCell>
                <mxCell id="11" value="&lt;font style=&quot;font-size: 10px&quot;&gt;Iqbal Alvi&lt;/font&gt;&lt;br&gt;&lt;font style=&quot;font-size: 4px&quot;&gt;Presenting the Perfect Private Aquarium&lt;/font&gt;" style="rounded=1;whiteSpace=wrap;html=1;fillColor=none;strokeColor=#00FFFF;" parent="1" vertex="1">
                    <mxGeometry x="-740" y="280" width="80" height="40" as="geometry"/>
                </mxCell>
                <mxCell id="14" value="&lt;font style=&quot;font-size: 10px&quot;&gt;VJ Alvi&lt;/font&gt;&lt;br&gt;&lt;span style=&quot;font-size: 5px&quot;&gt;-&lt;/span&gt;" style="rounded=1;whiteSpace=wrap;html=1;fillColor=none;strokeColor=#00FFFF;" parent="1" vertex="1">
                    <mxGeometry x="-800" y="360" width="80" height="40" as="geometry"/>
                </mxCell>
                <mxCell id="15" value="&lt;font style=&quot;font-size: 10px&quot;&gt;Miraj Alvi&lt;/font&gt;&lt;br&gt;&lt;span style=&quot;font-size: 5px&quot;&gt;-&lt;/span&gt;" style="rounded=1;whiteSpace=wrap;html=1;fillColor=none;strokeColor=#00FFFF;" parent="1" vertex="1">
                    <mxGeometry x="-680" y="360" width="80" height="40" as="geometry"/>
                </mxCell>
                <mxCell id="18" style="edgeStyle=orthogonalEdgeStyle;rounded=0;orthogonalLoop=1;jettySize=auto;html=1;entryX=0;entryY=0.5;entryDx=0;entryDy=0;shape=link;" parent="1" source="19" target="20" edge="1">
                    <mxGeometry relative="1" as="geometry"/>
                </mxCell>
                <mxCell id="19" value="&lt;font style=&quot;font-size: 10px&quot;&gt;Beau Andrews&lt;/font&gt;&lt;br&gt;&lt;span style=&quot;font-size: 5px&quot;&gt;Gold Digger&lt;/span&gt;" style="rounded=1;whiteSpace=wrap;html=1;fillColor=none;strokeColor=#00FFFF;" parent="1" vertex="1">
                    <mxGeometry x="-240" y="880" width="80" height="40" as="geometry"/>
                </mxCell>
                <mxCell id="20" value="&lt;font style=&quot;font-size: 10px&quot;&gt;Victoria Andrews&lt;/font&gt;&lt;br&gt;&lt;span style=&quot;font-size: 5px&quot;&gt;Star News Anchor&lt;/span&gt;" style="rounded=1;whiteSpace=wrap;html=1;fontColor=#ffffff;fillColor=none;strokeColor=#FF0080;" parent="1" vertex="1">
                    <mxGeometry x="-120" y="880" width="80" height="40" as="geometry"/>
                </mxCell>
                <mxCell id="21" style="edgeStyle=orthogonalEdgeStyle;rounded=0;orthogonalLoop=1;jettySize=auto;html=1;entryX=0;entryY=0.5;entryDx=0;entryDy=0;shape=link;" parent="1" source="22" target="23" edge="1">
                    <mxGeometry relative="1" as="geometry"/>
                </mxCell>
                <mxCell id="22" value="&lt;span style=&quot;font-size: 10px&quot;&gt;Milton Bachelor&lt;/span&gt;&lt;br&gt;&lt;span style=&quot;font-size: 5px&quot;&gt;Jack of All Trades&lt;/span&gt;" style="rounded=1;whiteSpace=wrap;html=1;fillColor=none;strokeColor=#00FFFF;" parent="1" vertex="1">
                    <mxGeometry x="720" y="80" width="80" height="40" as="geometry"/>
                </mxCell>
                <mxCell id="23" value="&lt;font style=&quot;font-size: 9px&quot;&gt;Enriqueta Bachelor&lt;/font&gt;&lt;br&gt;&lt;span style=&quot;font-size: 5px&quot;&gt;Surrounded by Family&lt;/span&gt;" style="rounded=1;whiteSpace=wrap;html=1;fontColor=#ffffff;fillColor=none;strokeColor=#FF0080;" parent="1" vertex="1">
                    <mxGeometry x="840" y="80" width="80" height="40" as="geometry"/>
                </mxCell>
                <mxCell id="24" style="edgeStyle=orthogonalEdgeStyle;shape=link;rounded=0;orthogonalLoop=1;jettySize=auto;html=1;exitX=0.5;exitY=0;exitDx=0;exitDy=0;" parent="1" source="25" edge="1">
                    <mxGeometry relative="1" as="geometry">
                        <mxPoint x="820" y="100" as="targetPoint"/>
                    </mxGeometry>
                </mxCell>
                <mxCell id="27" style="edgeStyle=orthogonalEdgeStyle;shape=link;rounded=0;orthogonalLoop=1;jettySize=auto;html=1;entryX=0;entryY=0.5;entryDx=0;entryDy=0;" parent="1" source="25" target="26" edge="1">
                    <mxGeometry relative="1" as="geometry"/>
                </mxCell>
                <mxCell id="25" value="&lt;font style=&quot;font-size: 10px&quot;&gt;Simis Bachelor&lt;/font&gt;&lt;br&gt;&lt;span style=&quot;font-size: 5px&quot;&gt;Living in the Lap of Luxury&lt;/span&gt;" style="rounded=1;whiteSpace=wrap;html=1;fontColor=#ffffff;fillColor=none;strokeColor=#00FFFF;" parent="1" vertex="1">
                    <mxGeometry x="780" y="160" width="80" height="40" as="geometry"/>
                </mxCell>
                <mxCell id="26" value="&lt;span style=&quot;font-size: 10px&quot;&gt;Jocasta Bachelor&lt;/span&gt;&lt;br&gt;&lt;span style=&quot;font-size: 5px&quot;&gt;The Perfect Garden&lt;/span&gt;" style="rounded=1;whiteSpace=wrap;html=1;fontColor=#ffffff;fillColor=none;strokeColor=#FF0080;" parent="1" vertex="1">
                    <mxGeometry x="920" y="160" width="80" height="40" as="geometry"/>
                </mxCell>
                <mxCell id="31" style="edgeStyle=orthogonalEdgeStyle;shape=link;rounded=0;orthogonalLoop=1;jettySize=auto;html=1;exitX=0.5;exitY=0;exitDx=0;exitDy=0;" parent="1" source="29" edge="1">
                    <mxGeometry relative="1" as="geometry">
                        <mxPoint x="890" y="180" as="targetPoint"/>
                    </mxGeometry>
                </mxCell>
                <mxCell id="29" value="&lt;font style=&quot;font-size: 10px&quot;&gt;Michael Bachelor&lt;/font&gt;&lt;br&gt;&lt;span style=&quot;font-size: 5px&quot;&gt;-&lt;/span&gt;" style="rounded=1;whiteSpace=wrap;html=1;fontColor=#ffffff;fillColor=none;strokeColor=#00FFFF;" parent="1" vertex="1">
                    <mxGeometry x="780" y="240" width="80" height="40" as="geometry"/>
                </mxCell>
                <mxCell id="33" style="edgeStyle=orthogonalEdgeStyle;shape=link;rounded=0;orthogonalLoop=1;jettySize=auto;html=1;exitX=0.5;exitY=0;exitDx=0;exitDy=0;" parent="1" source="30" edge="1">
                    <mxGeometry relative="1" as="geometry">
                        <mxPoint x="890" y="180" as="targetPoint"/>
                    </mxGeometry>
                </mxCell>
                <mxCell id="35" style="edgeStyle=orthogonalEdgeStyle;shape=link;rounded=0;orthogonalLoop=1;jettySize=auto;html=1;entryX=0;entryY=0.5;entryDx=0;entryDy=0;" parent="1" source="30" target="34" edge="1">
                    <mxGeometry relative="1" as="geometry"/>
                </mxCell>
                <mxCell id="30" value="&lt;span style=&quot;font-size: 10px&quot;&gt;Bella Bachelor&lt;/span&gt;&lt;br&gt;&lt;span style=&quot;font-size: 5px&quot;&gt;-&lt;/span&gt;" style="rounded=1;whiteSpace=wrap;html=1;fontColor=#ffffff;fillColor=none;strokeColor=#FF0080;" parent="1" vertex="1">
                    <mxGeometry x="920" y="240" width="80" height="40" as="geometry"/>
                </mxCell>
                <mxCell id="34" value="&lt;font style=&quot;font-size: 10px&quot;&gt;Mortimer Goth&lt;/font&gt;&lt;br&gt;&lt;span style=&quot;font-size: 5px&quot;&gt;Renaissance Sim&lt;/span&gt;" style="rounded=1;whiteSpace=wrap;html=1;fontColor=#ffffff;fillColor=none;strokeColor=#00FFFF;" parent="1" vertex="1">
                    <mxGeometry x="1240" y="240" width="80" height="40" as="geometry"/>
                </mxCell>
                <mxCell id="43" value="&lt;span style=&quot;font-size: 10px&quot;&gt;Judy Bunch&lt;/span&gt;&lt;br&gt;&lt;span style=&quot;font-size: 5px&quot;&gt;Surrounded by Family&lt;/span&gt;" style="rounded=1;whiteSpace=wrap;html=1;fontColor=#ffffff;fillColor=none;strokeColor=#FF0080;" parent="1" vertex="1">
                    <mxGeometry x="280" y="520" width="80" height="40" as="geometry"/>
                </mxCell>
                <mxCell id="49" style="edgeStyle=orthogonalEdgeStyle;shape=link;rounded=0;orthogonalLoop=1;jettySize=auto;html=1;entryX=0;entryY=0.5;entryDx=0;entryDy=0;" parent="1" source="44" target="43" edge="1">
                    <mxGeometry relative="1" as="geometry"/>
                </mxCell>
                <mxCell id="44" value="&lt;span style=&quot;font-size: 10px&quot;&gt;Jack Bunch&lt;/span&gt;&lt;br&gt;&lt;span style=&quot;font-size: 5px&quot;&gt;Become a Superstar Athlete&lt;/span&gt;" style="rounded=1;whiteSpace=wrap;html=1;fillColor=none;strokeColor=#00FFFF;" parent="1" vertex="1">
                    <mxGeometry x="160" y="520" width="80" height="40" as="geometry"/>
                </mxCell>
                <mxCell id="50" style="edgeStyle=orthogonalEdgeStyle;shape=link;rounded=0;orthogonalLoop=1;jettySize=auto;html=1;" parent="1" source="45" edge="1">
                    <mxGeometry relative="1" as="geometry">
                        <mxPoint x="260" y="540" as="targetPoint"/>
                        <Array as="points">
                            <mxPoint x="80" y="580"/>
                            <mxPoint x="260" y="580"/>
                        </Array>
                    </mxGeometry>
                </mxCell>
                <mxCell id="45" value="&lt;span style=&quot;font-size: 10px&quot;&gt;Ethan Bunch&lt;/span&gt;&lt;br&gt;&lt;span style=&quot;font-size: 5px&quot;&gt;-&lt;/span&gt;" style="rounded=1;whiteSpace=wrap;html=1;fillColor=none;strokeColor=#00FFFF;" parent="1" vertex="1">
                    <mxGeometry x="40" y="600" width="80" height="40" as="geometry"/>
                </mxCell>
                <mxCell id="52" style="edgeStyle=orthogonalEdgeStyle;shape=link;rounded=0;orthogonalLoop=1;jettySize=auto;html=1;" parent="1" source="46" edge="1">
                    <mxGeometry relative="1" as="geometry">
                        <mxPoint x="260" y="540" as="targetPoint"/>
                        <Array as="points">
                            <mxPoint x="320" y="580"/>
                            <mxPoint x="260" y="580"/>
                        </Array>
                    </mxGeometry>
                </mxCell>
                <mxCell id="46" value="&lt;span style=&quot;font-size: 10px&quot;&gt;Arlo Bunch&lt;/span&gt;&lt;br&gt;&lt;span style=&quot;font-size: 5px&quot;&gt;-&lt;/span&gt;" style="rounded=1;whiteSpace=wrap;html=1;fillColor=none;strokeColor=#00FFFF;" parent="1" vertex="1">
                    <mxGeometry x="280" y="600" width="80" height="40" as="geometry"/>
                </mxCell>
                <mxCell id="51" style="edgeStyle=orthogonalEdgeStyle;shape=link;rounded=0;orthogonalLoop=1;jettySize=auto;html=1;" parent="1" source="47" edge="1">
                    <mxGeometry relative="1" as="geometry">
                        <mxPoint x="260" y="540" as="targetPoint"/>
                        <Array as="points">
                            <mxPoint x="200" y="580"/>
                            <mxPoint x="260" y="580"/>
                        </Array>
                    </mxGeometry>
                </mxCell>
                <mxCell id="47" value="&lt;span style=&quot;font-size: 10px&quot;&gt;Lisa Bunch&lt;/span&gt;&lt;br&gt;&lt;span style=&quot;font-size: 5px&quot;&gt;-&lt;/span&gt;" style="rounded=1;whiteSpace=wrap;html=1;fontColor=#ffffff;fillColor=none;strokeColor=#FF0080;" parent="1" vertex="1">
                    <mxGeometry x="160" y="600" width="80" height="40" as="geometry"/>
                </mxCell>
                <mxCell id="53" style="edgeStyle=orthogonalEdgeStyle;shape=link;rounded=0;orthogonalLoop=1;jettySize=auto;html=1;" parent="1" source="48" edge="1">
                    <mxGeometry relative="1" as="geometry">
                        <mxPoint x="260" y="540" as="targetPoint"/>
                        <Array as="points">
                            <mxPoint x="440" y="580"/>
                            <mxPoint x="260" y="580"/>
                        </Array>
                    </mxGeometry>
                </mxCell>
                <mxCell id="48" value="&lt;span style=&quot;font-size: 10px&quot;&gt;Darlene Bunch&lt;/span&gt;&lt;br&gt;&lt;span style=&quot;font-size: 5px&quot;&gt;-&lt;/span&gt;" style="rounded=1;whiteSpace=wrap;html=1;fontColor=#ffffff;fillColor=none;strokeColor=#FF0080;" parent="1" vertex="1">
                    <mxGeometry x="400" y="600" width="80" height="40" as="geometry"/>
                </mxCell>
                <mxCell id="54" value="&lt;span style=&quot;font-size: 10px&quot;&gt;Jennie Clavell&lt;/span&gt;&lt;br&gt;&lt;span style=&quot;font-size: 5px&quot;&gt;-&lt;/span&gt;" style="rounded=1;whiteSpace=wrap;html=1;fontColor=#ffffff;fillColor=none;strokeColor=#FF0080;" parent="1" vertex="1">
                    <mxGeometry x="640" y="520" width="80" height="40" as="geometry"/>
                </mxCell>
                <mxCell id="60" style="edgeStyle=orthogonalEdgeStyle;shape=link;rounded=0;orthogonalLoop=1;jettySize=auto;html=1;entryX=0;entryY=0.5;entryDx=0;entryDy=0;" parent="1" source="55" target="54" edge="1">
                    <mxGeometry relative="1" as="geometry"/>
                </mxCell>
                <mxCell id="55" value="&lt;font style=&quot;font-size: 10px&quot;&gt;Ransom Clavell&lt;/font&gt;&lt;br&gt;&lt;span style=&quot;font-size: 5px&quot;&gt;Dynamic DNA Profiler&lt;/span&gt;" style="rounded=1;whiteSpace=wrap;html=1;fillColor=none;strokeColor=#00FFFF;" parent="1" vertex="1">
                    <mxGeometry x="520" y="520" width="80" height="40" as="geometry"/>
                </mxCell>
                <mxCell id="62" style="edgeStyle=orthogonalEdgeStyle;shape=link;rounded=0;orthogonalLoop=1;jettySize=auto;html=1;exitX=0;exitY=0.5;exitDx=0;exitDy=0;entryX=1;entryY=0.5;entryDx=0;entryDy=0;" parent="1" source="56" target="57" edge="1">
                    <mxGeometry relative="1" as="geometry"/>
                </mxCell>
                <mxCell id="56" value="&lt;span style=&quot;font-size: 10px&quot;&gt;Bessie Clavell&lt;/span&gt;&lt;br&gt;&lt;span style=&quot;font-size: 5px&quot;&gt;Master of the Arts&lt;/span&gt;" style="rounded=1;whiteSpace=wrap;html=1;fontColor=#ffffff;fillColor=none;strokeColor=#FF0080;" parent="1" vertex="1">
                    <mxGeometry x="700" y="600" width="80" height="40" as="geometry"/>
                </mxCell>
                <mxCell id="61" style="edgeStyle=orthogonalEdgeStyle;shape=link;rounded=0;orthogonalLoop=1;jettySize=auto;html=1;" parent="1" source="57" edge="1">
                    <mxGeometry relative="1" as="geometry">
                        <mxPoint x="620" y="540" as="targetPoint"/>
                    </mxGeometry>
                </mxCell>
                <mxCell id="57" value="&lt;font style=&quot;font-size: 10px&quot;&gt;Buster Clavell&lt;/font&gt;&lt;br&gt;&lt;span style=&quot;font-size: 5px&quot;&gt;Living in the Lap of Luxury&lt;/span&gt;" style="rounded=1;whiteSpace=wrap;html=1;fillColor=none;strokeColor=#00FFFF;" parent="1" vertex="1">
                    <mxGeometry x="580" y="600" width="80" height="40" as="geometry"/>
                </mxCell>
                <mxCell id="63" style="edgeStyle=orthogonalEdgeStyle;shape=link;rounded=0;orthogonalLoop=1;jettySize=auto;html=1;" parent="1" source="59" edge="1">
                    <mxGeometry relative="1" as="geometry">
                        <mxPoint x="680" y="620" as="targetPoint"/>
                    </mxGeometry>
                </mxCell>
                <mxCell id="59" value="&lt;font style=&quot;font-size: 10px&quot;&gt;Xander Clavell&lt;/font&gt;&lt;br&gt;&lt;span style=&quot;font-size: 5px&quot;&gt;Heartbreaker&lt;/span&gt;" style="rounded=1;whiteSpace=wrap;html=1;fillColor=none;strokeColor=#00FFFF;" parent="1" vertex="1">
                    <mxGeometry x="640" y="680" width="80" height="40" as="geometry"/>
                </mxCell>
                <mxCell id="131" style="edgeStyle=orthogonalEdgeStyle;shape=link;rounded=0;orthogonalLoop=1;jettySize=auto;html=1;entryX=0;entryY=0.5;entryDx=0;entryDy=0;" parent="1" source="122" target="125" edge="1">
                    <mxGeometry relative="1" as="geometry"/>
                </mxCell>
                <mxCell id="150" value="" style="edgeStyle=orthogonalEdgeStyle;shape=link;rounded=0;orthogonalLoop=1;jettySize=auto;html=1;" parent="1" source="122" edge="1">
                    <mxGeometry relative="1" as="geometry">
                        <mxPoint x="1540" y="100" as="targetPoint"/>
                        <Array as="points">
                            <mxPoint x="1520" y="140"/>
                            <mxPoint x="1540" y="140"/>
                        </Array>
                    </mxGeometry>
                </mxCell>
                <mxCell id="122" value="&lt;font style=&quot;font-size: 7px&quot;&gt;Agnes Crumplebottom&lt;/font&gt;&lt;br&gt;&lt;span style=&quot;font-size: 5px&quot;&gt;Illustrious Author&lt;/span&gt;" style="rounded=1;whiteSpace=wrap;html=1;fontColor=#ffffff;fillColor=none;strokeColor=#FF0080;" parent="1" vertex="1">
                    <mxGeometry x="1480" y="160" width="80" height="40" as="geometry"/>
                </mxCell>
                <mxCell id="125" value="&lt;span style=&quot;font-size: 10px&quot;&gt;Erik Darling&lt;/span&gt;&lt;br&gt;&lt;span style=&quot;font-size: 5px&quot;&gt;Super Popular&lt;/span&gt;" style="rounded=1;whiteSpace=wrap;html=1;fontColor=#ffffff;fillColor=none;strokeColor=#00FFFF;" parent="1" vertex="1">
                    <mxGeometry x="1600" y="160" width="80" height="40" as="geometry"/>
                </mxCell>
                <mxCell id="128" style="edgeStyle=orthogonalEdgeStyle;shape=link;rounded=0;orthogonalLoop=1;jettySize=auto;html=1;entryX=0;entryY=0.5;entryDx=0;entryDy=0;" parent="1" source="126" target="127" edge="1">
                    <mxGeometry relative="1" as="geometry"/>
                </mxCell>
                <mxCell id="126" value="&lt;font style=&quot;font-size: 7px&quot;&gt;Simon Crumplebottom&lt;/font&gt;&lt;br&gt;&lt;span style=&quot;font-size: 5px&quot;&gt;Swimming in Cash&lt;/span&gt;" style="rounded=1;whiteSpace=wrap;html=1;fontColor=#ffffff;fillColor=none;strokeColor=#00FFFF;" parent="1" vertex="1">
                    <mxGeometry x="1440" y="80" width="80" height="40" as="geometry"/>
                </mxCell>
                <mxCell id="127" value="&lt;font style=&quot;font-size: 6px&quot;&gt;Prudence Crumplebottom&lt;/font&gt;&lt;br&gt;&lt;span style=&quot;font-size: 5px&quot;&gt;World Renowned Surgeon&lt;/span&gt;" style="rounded=1;whiteSpace=wrap;html=1;fontColor=#ffffff;fillColor=none;strokeColor=#FF0080;" parent="1" vertex="1">
                    <mxGeometry x="1560" y="80" width="80" height="40" as="geometry"/>
                </mxCell>
                <mxCell id="133" style="edgeStyle=orthogonalEdgeStyle;shape=link;rounded=0;orthogonalLoop=1;jettySize=auto;html=1;entryX=0;entryY=0.5;entryDx=0;entryDy=0;" parent="1" source="132" target="124" edge="1">
                    <mxGeometry relative="1" as="geometry"/>
                </mxCell>
                <mxCell id="139" style="edgeStyle=orthogonalEdgeStyle;shape=link;rounded=0;orthogonalLoop=1;jettySize=auto;html=1;" parent="1" source="132" edge="1">
                    <mxGeometry relative="1" as="geometry">
                        <mxPoint x="1300" y="100" as="targetPoint"/>
                        <Array as="points">
                            <mxPoint x="1270" y="140"/>
                            <mxPoint x="1300" y="140"/>
                        </Array>
                    </mxGeometry>
                </mxCell>
                <mxCell id="132" value="&lt;font style=&quot;font-size: 10px&quot;&gt;Gunther Goth&lt;/font&gt;&lt;br&gt;&lt;span style=&quot;font-size: 5px&quot;&gt;Renaissance Sim&lt;/span&gt;" style="rounded=1;whiteSpace=wrap;html=1;fontColor=#ffffff;fillColor=none;strokeColor=#00FFFF;" parent="1" vertex="1">
                    <mxGeometry x="1240" y="160" width="80" height="40" as="geometry"/>
                </mxCell>
                <mxCell id="135" style="edgeStyle=orthogonalEdgeStyle;shape=link;rounded=0;orthogonalLoop=1;jettySize=auto;html=1;entryX=0;entryY=0.5;entryDx=0;entryDy=0;" parent="1" source="136" target="137" edge="1">
                    <mxGeometry relative="1" as="geometry"/>
                </mxCell>
                <mxCell id="136" value="&lt;font style=&quot;font-size: 7px&quot;&gt;Victor Goth&lt;/font&gt;&lt;br&gt;&lt;span style=&quot;font-size: 5px&quot;&gt;CEO of Mega Corporation&lt;/span&gt;" style="rounded=1;whiteSpace=wrap;html=1;fontColor=#ffffff;fillColor=none;strokeColor=#00FFFF;" parent="1" vertex="1">
                    <mxGeometry x="1200" y="80" width="80" height="40" as="geometry"/>
                </mxCell>
                <mxCell id="137" value="&lt;font style=&quot;font-size: 6px&quot;&gt;Gretle Goth&lt;/font&gt;&lt;br&gt;&lt;span style=&quot;font-size: 5px&quot;&gt;Living in the Lap of Luxury&lt;/span&gt;" style="rounded=1;whiteSpace=wrap;html=1;fontColor=#ffffff;fillColor=none;strokeColor=#FF0080;" parent="1" vertex="1">
                    <mxGeometry x="1320" y="80" width="80" height="40" as="geometry"/>
                </mxCell>
                <mxCell id="141" style="edgeStyle=orthogonalEdgeStyle;shape=link;rounded=0;orthogonalLoop=1;jettySize=auto;html=1;entryX=0.5;entryY=0;entryDx=0;entryDy=0;" parent="1" source="140" target="136" edge="1">
                    <mxGeometry relative="1" as="geometry">
                        <Array as="points">
                            <mxPoint x="1240" y="60"/>
                            <mxPoint x="1360" y="60"/>
                        </Array>
                    </mxGeometry>
                </mxCell>
                <mxCell id="140" value="&lt;font style=&quot;font-size: 7px&quot;&gt;Samuel Goth&lt;/font&gt;&lt;br&gt;&lt;span style=&quot;font-size: 5px&quot;&gt;Renaissance Sim&lt;/span&gt;" style="rounded=1;whiteSpace=wrap;html=1;fontColor=#ffffff;fillColor=none;strokeColor=#00FFFF;" parent="1" vertex="1">
                    <mxGeometry x="1080" y="80" width="80" height="40" as="geometry"/>
                </mxCell>
                <mxCell id="145" style="edgeStyle=orthogonalEdgeStyle;shape=link;rounded=0;orthogonalLoop=1;jettySize=auto;html=1;entryX=0;entryY=0.5;entryDx=0;entryDy=0;" parent="1" source="144" target="140" edge="1">
                    <mxGeometry relative="1" as="geometry"/>
                </mxCell>
                <mxCell id="144" value="&lt;span style=&quot;font-size: 10px&quot;&gt;Olivia Goth&lt;/span&gt;&lt;br&gt;&lt;span style=&quot;font-size: 5px&quot;&gt;Swimming in Cash&lt;/span&gt;" style="rounded=1;whiteSpace=wrap;html=1;fontColor=#ffffff;fillColor=none;strokeColor=#FF0080;" parent="1" vertex="1">
                    <mxGeometry x="960" y="80" width="80" height="40" as="geometry"/>
                </mxCell>
                <mxCell id="147" style="edgeStyle=orthogonalEdgeStyle;shape=link;rounded=0;orthogonalLoop=1;jettySize=auto;html=1;exitX=0.5;exitY=0;exitDx=0;exitDy=0;" parent="1" source="146" edge="1">
                    <mxGeometry relative="1" as="geometry">
                        <mxPoint x="1300" y="100" as="targetPoint"/>
                        <Array as="points">
                            <mxPoint x="1155" y="140"/>
                            <mxPoint x="1300" y="140"/>
                            <mxPoint x="1300" y="100"/>
                        </Array>
                    </mxGeometry>
                </mxCell>
                <mxCell id="146" value="&lt;font style=&quot;font-size: 10px&quot;&gt;Frida Goth&lt;/font&gt;&lt;br&gt;&lt;span style=&quot;font-size: 5px&quot;&gt;International Super Spy&lt;/span&gt;" style="rounded=1;whiteSpace=wrap;html=1;fontColor=#ffffff;fillColor=none;strokeColor=#FF0080;" parent="1" vertex="1">
                    <mxGeometry x="1115" y="160" width="80" height="40" as="geometry"/>
                </mxCell>
                <mxCell id="149" style="edgeStyle=orthogonalEdgeStyle;shape=link;rounded=0;orthogonalLoop=1;jettySize=auto;html=1;" parent="1" source="124" edge="1">
                    <mxGeometry relative="1" as="geometry">
                        <mxPoint x="1540" y="100" as="targetPoint"/>
                        <Array as="points">
                            <mxPoint x="1520" y="140"/>
                            <mxPoint x="1580" y="140"/>
                        </Array>
                    </mxGeometry>
                </mxCell>
                <mxCell id="124" value="&lt;font style=&quot;font-size: 7px&quot;&gt;Cornelia Crumplebottom&lt;/font&gt;&lt;br&gt;&lt;span style=&quot;font-size: 5px&quot;&gt;The Perfect Garden&lt;/span&gt;" style="rounded=1;whiteSpace=wrap;html=1;fontColor=#ffffff;fillColor=none;strokeColor=#FF0080;" parent="1" vertex="1">
                    <mxGeometry x="1360" y="160" width="80" height="40" as="geometry"/>
                </mxCell>
                <mxCell id="148" style="edgeStyle=orthogonalEdgeStyle;shape=link;rounded=0;orthogonalLoop=1;jettySize=auto;html=1;" parent="1" source="34" edge="1">
                    <mxGeometry relative="1" as="geometry">
                        <mxPoint x="1340" y="180" as="targetPoint"/>
                        <mxPoint x="1475" y="260" as="sourcePoint"/>
                        <Array as="points">
                            <mxPoint x="1280" y="220"/>
                            <mxPoint x="1340" y="220"/>
                        </Array>
                    </mxGeometry>
                </mxCell>
                <mxCell id="154" style="edgeStyle=orthogonalEdgeStyle;shape=link;rounded=0;orthogonalLoop=1;jettySize=auto;html=1;exitX=0.5;exitY=0;exitDx=0;exitDy=0;" parent="1" source="152" edge="1">
                    <mxGeometry relative="1" as="geometry">
                        <mxPoint x="1040" y="260" as="targetPoint"/>
                    </mxGeometry>
                </mxCell>
                <mxCell id="152" value="&lt;span style=&quot;font-size: 10px&quot;&gt;Cassandra Goth&lt;/span&gt;" style="rounded=1;whiteSpace=wrap;html=1;fontColor=#ffffff;fillColor=none;strokeColor=#FF0080;" parent="1" vertex="1">
                    <mxGeometry x="1000" y="320" width="80" height="40" as="geometry"/>
                </mxCell>
                <mxCell id="155" style="edgeStyle=orthogonalEdgeStyle;shape=link;rounded=0;orthogonalLoop=1;jettySize=auto;html=1;exitX=0.5;exitY=0;exitDx=0;exitDy=0;" parent="1" source="153" edge="1">
                    <mxGeometry relative="1" as="geometry">
                        <mxPoint x="1160" y="260" as="targetPoint"/>
                    </mxGeometry>
                </mxCell>
                <mxCell id="157" style="edgeStyle=orthogonalEdgeStyle;shape=link;rounded=0;orthogonalLoop=1;jettySize=auto;html=1;entryX=0;entryY=0.5;entryDx=0;entryDy=0;" parent="1" source="153" target="156" edge="1">
                    <mxGeometry relative="1" as="geometry"/>
                </mxCell>
                <mxCell id="153" value="&lt;font style=&quot;font-size: 10px&quot;&gt;Alexander Goth&lt;/font&gt;&lt;br&gt;&lt;span style=&quot;font-size: 5px&quot;&gt;The Tinkerer&lt;/span&gt;" style="rounded=1;whiteSpace=wrap;html=1;fontColor=#ffffff;fillColor=none;strokeColor=#00FFFF;" parent="1" vertex="1">
                    <mxGeometry x="1120" y="320" width="80" height="40" as="geometry"/>
                </mxCell>
                <mxCell id="156" value="&lt;span style=&quot;font-size: 10px&quot;&gt;Cecilia Goth&lt;/span&gt;&lt;br&gt;&lt;span style=&quot;font-size: 5px&quot;&gt;Living in the Lap of Luxury&lt;/span&gt;" style="rounded=1;whiteSpace=wrap;html=1;fontColor=#ffffff;fillColor=none;strokeColor=#FF0080;" parent="1" vertex="1">
                    <mxGeometry x="1240" y="320" width="80" height="40" as="geometry"/>
                </mxCell>
                <mxCell id="171" style="edgeStyle=orthogonalEdgeStyle;shape=link;rounded=0;orthogonalLoop=1;jettySize=auto;html=1;entryX=0;entryY=0.5;entryDx=0;entryDy=0;" parent="1" source="158" target="29" edge="1">
                    <mxGeometry relative="1" as="geometry"/>
                </mxCell>
                <mxCell id="184" style="edgeStyle=orthogonalEdgeStyle;shape=link;rounded=0;orthogonalLoop=1;jettySize=auto;html=1;" parent="1" source="158" edge="1">
                    <mxGeometry relative="1" as="geometry">
                        <mxPoint x="520" y="180" as="targetPoint"/>
                    </mxGeometry>
                </mxCell>
                <mxCell id="158" value="&lt;span style=&quot;font-size: 10px&quot;&gt;Dina Caliente&lt;/span&gt;&lt;br&gt;&lt;span style=&quot;font-size: 5px&quot;&gt;Jack of All Trades&lt;/span&gt;" style="rounded=1;whiteSpace=wrap;html=1;fontColor=#ffffff;fillColor=none;strokeColor=#FF0080;" parent="1" vertex="1">
                    <mxGeometry x="480" y="240" width="80" height="40" as="geometry"/>
                </mxCell>
                <mxCell id="183" style="edgeStyle=orthogonalEdgeStyle;shape=link;rounded=0;orthogonalLoop=1;jettySize=auto;html=1;" parent="1" source="159" edge="1">
                    <mxGeometry relative="1" as="geometry">
                        <mxPoint x="400" y="180" as="targetPoint"/>
                    </mxGeometry>
                </mxCell>
                <mxCell id="159" value="&lt;span style=&quot;font-size: 10px&quot;&gt;Nina Caliente&lt;/span&gt;&lt;br&gt;&lt;span style=&quot;font-size: 5px&quot;&gt;Super Popular&lt;/span&gt;" style="rounded=1;whiteSpace=wrap;html=1;fontColor=#ffffff;fillColor=none;strokeColor=#FF0080;" parent="1" vertex="1">
                    <mxGeometry x="360" y="240" width="80" height="40" as="geometry"/>
                </mxCell>
                <mxCell id="169" style="edgeStyle=orthogonalEdgeStyle;shape=link;rounded=0;orthogonalLoop=1;jettySize=auto;html=1;dashed=1;" parent="1" source="161" edge="1">
                    <mxGeometry relative="1" as="geometry">
                        <mxPoint x="340" y="100" as="targetPoint"/>
                        <Array as="points">
                            <mxPoint x="340" y="150"/>
                            <mxPoint x="340" y="150"/>
                        </Array>
                    </mxGeometry>
                </mxCell>
                <mxCell id="172" style="edgeStyle=orthogonalEdgeStyle;shape=link;rounded=0;orthogonalLoop=1;jettySize=auto;html=1;entryX=0;entryY=0.5;entryDx=0;entryDy=0;" parent="1" source="161" target="170" edge="1">
                    <mxGeometry relative="1" as="geometry"/>
                </mxCell>
                <mxCell id="161" value="&lt;span style=&quot;font-size: 10px&quot;&gt;Flamenco Caliente&lt;/span&gt;" style="rounded=1;whiteSpace=wrap;html=1;fontColor=#ffffff;fillColor=none;strokeColor=#00FFFF;" parent="1" vertex="1">
                    <mxGeometry x="300" y="160" width="80" height="40" as="geometry"/>
                </mxCell>
                <mxCell id="182" style="edgeStyle=orthogonalEdgeStyle;shape=link;rounded=0;orthogonalLoop=1;jettySize=auto;html=1;" parent="1" source="162" edge="1">
                    <mxGeometry relative="1" as="geometry">
                        <mxPoint x="220" y="100" as="targetPoint"/>
                    </mxGeometry>
                </mxCell>
                <mxCell id="162" value="&lt;span style=&quot;font-size: 10px&quot;&gt;Tango Caliente&lt;/span&gt;" style="rounded=1;whiteSpace=wrap;html=1;fontColor=#ffffff;fillColor=none;strokeColor=#00FFFF;" parent="1" vertex="1">
                    <mxGeometry x="180" y="160" width="80" height="40" as="geometry"/>
                </mxCell>
                <mxCell id="180" style="edgeStyle=orthogonalEdgeStyle;shape=link;rounded=0;orthogonalLoop=1;jettySize=auto;html=1;entryX=0;entryY=0.5;entryDx=0;entryDy=0;dashed=1;" parent="1" source="163" target="167" edge="1">
                    <mxGeometry relative="1" as="geometry"/>
                </mxCell>
                <mxCell id="163" value="&lt;span style=&quot;font-size: 10px&quot;&gt;Nestor Caliente&lt;/span&gt;" style="rounded=1;whiteSpace=wrap;html=1;fontColor=#ffffff;fillColor=none;strokeColor=#00FFFF;" parent="1" vertex="1">
                    <mxGeometry x="240" y="80" width="80" height="40" as="geometry"/>
                </mxCell>
                <mxCell id="165" style="edgeStyle=orthogonalEdgeStyle;shape=link;rounded=0;orthogonalLoop=1;jettySize=auto;html=1;entryX=0;entryY=0.5;entryDx=0;entryDy=0;" parent="1" source="164" target="163" edge="1">
                    <mxGeometry relative="1" as="geometry"/>
                </mxCell>
                <mxCell id="167" value="&lt;span style=&quot;font-size: 10px&quot;&gt;Pollination Technician 7&lt;/span&gt;" style="rounded=1;whiteSpace=wrap;html=1;fontColor=#ffffff;fillColor=none;strokeColor=#00FFFF;" parent="1" vertex="1">
                    <mxGeometry x="360" y="80" width="80" height="40" as="geometry"/>
                </mxCell>
                <mxCell id="179" style="edgeStyle=orthogonalEdgeStyle;shape=link;rounded=0;orthogonalLoop=1;jettySize=auto;html=1;" parent="1" source="170" edge="1">
                    <mxGeometry relative="1" as="geometry">
                        <mxPoint x="580" y="100" as="targetPoint"/>
                    </mxGeometry>
                </mxCell>
                <mxCell id="170" value="&lt;span style=&quot;font-size: 10px&quot;&gt;Nighat Al Mahmoud&lt;/span&gt;&lt;br&gt;" style="rounded=1;whiteSpace=wrap;html=1;fontColor=#ffffff;fillColor=none;strokeColor=#FF0080;" parent="1" vertex="1">
                    <mxGeometry x="540" y="160" width="80" height="40" as="geometry"/>
                </mxCell>
                <mxCell id="178" style="edgeStyle=orthogonalEdgeStyle;shape=link;rounded=0;orthogonalLoop=1;jettySize=auto;html=1;entryX=0;entryY=0.5;entryDx=0;entryDy=0;" parent="1" source="176" target="177" edge="1">
                    <mxGeometry relative="1" as="geometry"/>
                </mxCell>
                <mxCell id="176" value="&lt;span style=&quot;font-size: 10px&quot;&gt;Tariq Al Mahmoud&lt;/span&gt;" style="rounded=1;whiteSpace=wrap;html=1;fontColor=#ffffff;fillColor=none;strokeColor=#00FFFF;" parent="1" vertex="1">
                    <mxGeometry x="480" y="80" width="80" height="40" as="geometry"/>
                </mxCell>
                <mxCell id="177" value="&lt;span style=&quot;font-size: 10px&quot;&gt;Benazir Al Mahmoud&lt;/span&gt;" style="rounded=1;whiteSpace=wrap;html=1;fontColor=#ffffff;fillColor=none;strokeColor=#FF0080;" parent="1" vertex="1">
                    <mxGeometry x="600" y="80" width="80" height="40" as="geometry"/>
                </mxCell>
                <mxCell id="164" value="&lt;span style=&quot;font-size: 10px&quot;&gt;Dulcinea Caliente&lt;/span&gt;" style="rounded=1;whiteSpace=wrap;html=1;fontColor=#ffffff;fillColor=none;strokeColor=#FF0080;" parent="1" vertex="1">
                    <mxGeometry x="120" y="80" width="80" height="40" as="geometry"/>
                </mxCell>
                <mxCell id="186" style="edgeStyle=orthogonalEdgeStyle;shape=link;rounded=0;orthogonalLoop=1;jettySize=auto;html=1;entryX=0.5;entryY=0;entryDx=0;entryDy=0;" parent="1" source="185" target="6" edge="1">
                    <mxGeometry relative="1" as="geometry"/>
                </mxCell>
                <mxCell id="185" value="&lt;span style=&quot;font-size: 10px&quot;&gt;Molly French&lt;/span&gt;&lt;br&gt;&lt;span style=&quot;font-size: 5px&quot;&gt;Heartbreaker&lt;/span&gt;" style="rounded=1;whiteSpace=wrap;html=1;fontColor=#ffffff;fillColor=none;strokeColor=#FF0080;" parent="1" vertex="1">
                    <mxGeometry x="-480" y="640" width="80" height="40" as="geometry"/>
                </mxCell>
                <mxCell id="188" value="&lt;span style=&quot;font-size: 10px&quot;&gt;River McIrish&lt;/span&gt;&lt;br&gt;&lt;span style=&quot;font-size: 5px&quot;&gt;-&lt;/span&gt;" style="rounded=1;whiteSpace=wrap;html=1;fontColor=#ffffff;fillColor=none;strokeColor=#FF0080;" parent="1" vertex="1">
                    <mxGeometry x="-320" y="720" width="80" height="40" as="geometry"/>
                </mxCell>
                <mxCell id="189" style="edgeStyle=orthogonalEdgeStyle;shape=link;rounded=0;orthogonalLoop=1;jettySize=auto;html=1;entryX=0.5;entryY=0;entryDx=0;entryDy=0;" parent="1" source="190" target="188" edge="1">
                    <mxGeometry relative="1" as="geometry"/>
                </mxCell>
                <mxCell id="190" value="&lt;span style=&quot;font-size: 10px&quot;&gt;Fiona McIrish&lt;/span&gt;&lt;br&gt;&lt;span style=&quot;font-size: 5px&quot;&gt;The Tinkerer&lt;/span&gt;" style="rounded=1;whiteSpace=wrap;html=1;fontColor=#ffffff;fillColor=none;strokeColor=#FF0080;" parent="1" vertex="1">
                    <mxGeometry x="-320" y="640" width="80" height="40" as="geometry"/>
                </mxCell>
                <mxCell id="197" style="edgeStyle=orthogonalEdgeStyle;shape=link;rounded=0;orthogonalLoop=1;jettySize=auto;html=1;entryX=0.5;entryY=0;entryDx=0;entryDy=0;" parent="1" source="191" target="192" edge="1">
                    <mxGeometry relative="1" as="geometry">
                        <Array as="points">
                            <mxPoint x="-240" y="300"/>
                            <mxPoint x="-120" y="300"/>
                        </Array>
                    </mxGeometry>
                </mxCell>
                <mxCell id="191" value="&lt;span style=&quot;font-size: 10px&quot;&gt;Jared Frio&lt;/span&gt;&lt;br&gt;&lt;span style=&quot;font-size: 5px&quot;&gt;Celebrated 5-Star Chef&lt;/span&gt;" style="rounded=1;whiteSpace=wrap;html=1;fillColor=none;strokeColor=#00FFFF;" parent="1" vertex="1">
                    <mxGeometry x="-280" y="320" width="80" height="40" as="geometry"/>
                </mxCell>
                <mxCell id="192" value="&lt;span style=&quot;font-size: 10px&quot;&gt;Connor Frio&lt;/span&gt;&lt;br&gt;&lt;span style=&quot;font-size: 5px&quot;&gt;Professional Author&lt;/span&gt;" style="rounded=1;whiteSpace=wrap;html=1;fillColor=none;strokeColor=#00FFFF;" parent="1" vertex="1">
                    <mxGeometry x="-160" y="320" width="80" height="40" as="geometry"/>
                </mxCell>
                <mxCell id="195" style="edgeStyle=orthogonalEdgeStyle;shape=link;rounded=0;orthogonalLoop=1;jettySize=auto;html=1;entryX=0;entryY=0.5;entryDx=0;entryDy=0;dashed=1;" parent="1" source="193" target="191" edge="1">
                    <mxGeometry relative="1" as="geometry"/>
                </mxCell>
                <mxCell id="193" value="&lt;span style=&quot;font-size: 10px&quot;&gt;Claire Ursine&lt;/span&gt;&lt;br&gt;&lt;span style=&quot;font-size: 5px&quot;&gt;Become a Master Thief&lt;/span&gt;" style="rounded=1;whiteSpace=wrap;html=1;fontColor=#ffffff;fillColor=none;strokeColor=#FF0080;" parent="1" vertex="1">
                    <mxGeometry x="-400" y="320" width="80" height="40" as="geometry"/>
                </mxCell>
                <mxCell id="196" style="edgeStyle=orthogonalEdgeStyle;shape=link;rounded=0;orthogonalLoop=1;jettySize=auto;html=1;dashed=1;" parent="1" source="194" edge="1">
                    <mxGeometry relative="1" as="geometry">
                        <mxPoint x="-300" y="340" as="targetPoint"/>
                    </mxGeometry>
                </mxCell>
                <mxCell id="194" value="&lt;span style=&quot;font-size: 10px&quot;&gt;? Ursine&lt;/span&gt;" style="rounded=1;whiteSpace=wrap;html=1;fontColor=#ffffff;fillColor=none;strokeColor=#FF0080;" parent="1" vertex="1">
                    <mxGeometry x="-340" y="400" width="80" height="40" as="geometry"/>
                </mxCell>
                <mxCell id="202" style="edgeStyle=orthogonalEdgeStyle;shape=link;rounded=0;orthogonalLoop=1;jettySize=auto;html=1;entryX=0;entryY=0.5;entryDx=0;entryDy=0;" parent="1" source="198" target="200" edge="1">
                    <mxGeometry relative="1" as="geometry"/>
                </mxCell>
                <mxCell id="198" value="&lt;span style=&quot;font-size: 10px&quot;&gt;Gus Hart&lt;/span&gt;&lt;br&gt;&lt;span style=&quot;font-size: 5px&quot;&gt;Super Popular&lt;/span&gt;" style="rounded=1;whiteSpace=wrap;html=1;fillColor=none;strokeColor=#00FFFF;" parent="1" vertex="1">
                    <mxGeometry x="-240" y="40" width="80" height="40" as="geometry"/>
                </mxCell>
                <mxCell id="200" value="&lt;span style=&quot;font-size: 10px&quot;&gt;Dorie Hart&lt;/span&gt;&lt;br&gt;&lt;span style=&quot;font-size: 5px&quot;&gt;Super Popular&lt;/span&gt;" style="rounded=1;whiteSpace=wrap;html=1;fontColor=#ffffff;fillColor=none;strokeColor=#FF0080;" parent="1" vertex="1">
                    <mxGeometry x="-120" y="40" width="80" height="40" as="geometry"/>
                </mxCell>
                <mxCell id="203" style="edgeStyle=orthogonalEdgeStyle;shape=link;rounded=0;orthogonalLoop=1;jettySize=auto;html=1;" parent="1" source="201" edge="1">
                    <mxGeometry relative="1" as="geometry">
                        <mxPoint x="-140" y="60" as="targetPoint"/>
                    </mxGeometry>
                </mxCell>
                <mxCell id="201" value="&lt;span style=&quot;font-size: 10px&quot;&gt;Bebe Hart&lt;/span&gt;&lt;br&gt;&lt;span style=&quot;font-size: 5px&quot;&gt;-&lt;/span&gt;" style="rounded=1;whiteSpace=wrap;html=1;fontColor=#ffffff;fillColor=none;strokeColor=#FF0080;" parent="1" vertex="1">
                    <mxGeometry x="-180" y="120" width="80" height="40" as="geometry"/>
                </mxCell>
                <mxCell id="204" style="edgeStyle=orthogonalEdgeStyle;rounded=0;orthogonalLoop=1;jettySize=auto;html=1;entryX=0;entryY=0.5;entryDx=0;entryDy=0;shape=link;" parent="1" source="205" target="206" edge="1">
                    <mxGeometry relative="1" as="geometry"/>
                </mxCell>
                <mxCell id="205" value="&lt;font style=&quot;font-size: 10px&quot;&gt;Marty Keaton&lt;/font&gt;&lt;br&gt;&lt;span style=&quot;font-size: 5px&quot;&gt;Become a Superstar Athlete&lt;/span&gt;" style="rounded=1;whiteSpace=wrap;html=1;fillColor=none;strokeColor=#00FFFF;" parent="1" vertex="1">
                    <mxGeometry x="-520" y="40" width="80" height="40" as="geometry"/>
                </mxCell>
                <mxCell id="206" value="&lt;span style=&quot;font-size: 10px&quot;&gt;Justine Keaton&lt;/span&gt;&lt;br&gt;&lt;font style=&quot;font-size: 4px&quot;&gt;Forensic Specialist: Dynamic DNA Profiler&lt;/font&gt;" style="rounded=1;whiteSpace=wrap;html=1;fontColor=#ffffff;fillColor=none;strokeColor=#FF0080;" parent="1" vertex="1">
                    <mxGeometry x="-400" y="40" width="80" height="40" as="geometry"/>
                </mxCell>
                <mxCell id="208" style="edgeStyle=orthogonalEdgeStyle;shape=link;rounded=0;orthogonalLoop=1;jettySize=auto;html=1;" parent="1" source="207" edge="1">
                    <mxGeometry relative="1" as="geometry">
                        <mxPoint x="-420" y="60" as="targetPoint"/>
                    </mxGeometry>
                </mxCell>
                <mxCell id="207" value="&lt;span style=&quot;font-size: 10px&quot;&gt;? Keaton&lt;/span&gt;" style="rounded=1;whiteSpace=wrap;html=1;fontColor=#ffffff;fillColor=none;strokeColor=#00FFFF;" parent="1" vertex="1">
                    <mxGeometry x="-460" y="120" width="80" height="40" as="geometry"/>
                </mxCell>
                <mxCell id="211" style="edgeStyle=orthogonalEdgeStyle;shape=link;rounded=0;orthogonalLoop=1;jettySize=auto;html=1;" parent="1" source="209" target="210" edge="1">
                    <mxGeometry relative="1" as="geometry"/>
                </mxCell>
                <mxCell id="209" value="&lt;span style=&quot;font-size: 10px&quot;&gt;Gobias Koffi&lt;/span&gt;&lt;br&gt;&lt;span style=&quot;font-size: 5px&quot;&gt;Jack of All Trades&lt;/span&gt;" style="rounded=1;whiteSpace=wrap;html=1;fillColor=none;strokeColor=#00FFFF;" parent="1" vertex="1">
                    <mxGeometry x="-640" y="720" width="80" height="40" as="geometry"/>
                </mxCell>
                <mxCell id="210" value="&lt;span style=&quot;font-size: 10px&quot;&gt;Gaylord Koffi&lt;/span&gt;&lt;br&gt;&lt;span style=&quot;font-size: 5px&quot;&gt;Jack of All Trades&lt;/span&gt;" style="rounded=1;whiteSpace=wrap;html=1;fillColor=none;strokeColor=#00FFFF;" parent="1" vertex="1">
                    <mxGeometry x="-640" y="640" width="80" height="40" as="geometry"/>
                </mxCell>
                <mxCell id="226" style="edgeStyle=orthogonalEdgeStyle;shape=link;rounded=0;orthogonalLoop=1;jettySize=auto;html=1;" parent="1" source="212" edge="1">
                    <mxGeometry relative="1" as="geometry">
                        <mxPoint x="1020" y="780" as="targetPoint"/>
                    </mxGeometry>
                </mxCell>
                <mxCell id="227" style="edgeStyle=orthogonalEdgeStyle;shape=link;rounded=0;orthogonalLoop=1;jettySize=auto;html=1;" parent="1" source="212" target="214" edge="1">
                    <mxGeometry relative="1" as="geometry"/>
                </mxCell>
                <mxCell id="212" value="&lt;font style=&quot;font-size: 8px&quot;&gt;Malcolm Landgraab&lt;/font&gt;&lt;br&gt;&lt;span style=&quot;font-size: 5px&quot;&gt;Leader of the Free World&lt;/span&gt;" style="rounded=1;whiteSpace=wrap;html=1;fontColor=#ffffff;fillColor=none;strokeColor=#00FFFF;" parent="1" vertex="1">
                    <mxGeometry x="980" y="840" width="80" height="40" as="geometry"/>
                </mxCell>
                <mxCell id="224" style="edgeStyle=orthogonalEdgeStyle;shape=link;rounded=0;orthogonalLoop=1;jettySize=auto;html=1;entryX=0;entryY=0.5;entryDx=0;entryDy=0;" parent="1" source="213" target="215" edge="1">
                    <mxGeometry relative="1" as="geometry"/>
                </mxCell>
                <mxCell id="213" value="&lt;font style=&quot;font-size: 8px&quot;&gt;Geoffrey Landgraab&lt;/font&gt;&lt;br&gt;&lt;span style=&quot;font-size: 5px&quot;&gt;Illustrious Author&lt;/span&gt;" style="rounded=1;whiteSpace=wrap;html=1;fontColor=#ffffff;fillColor=none;strokeColor=#00FFFF;" parent="1" vertex="1">
                    <mxGeometry x="920" y="760" width="80" height="40" as="geometry"/>
                </mxCell>
                <mxCell id="214" value="&lt;font style=&quot;font-size: 8px&quot;&gt;Hannelore Landgraab&lt;/font&gt;&lt;br&gt;&lt;span style=&quot;font-size: 5px&quot;&gt;CEO of a Mega Corporation&lt;/span&gt;" style="rounded=1;whiteSpace=wrap;html=1;fontColor=#ffffff;fillColor=none;strokeColor=#FF0080;" parent="1" vertex="1">
                    <mxGeometry x="1100" y="840" width="80" height="40" as="geometry"/>
                </mxCell>
                <mxCell id="225" style="edgeStyle=orthogonalEdgeStyle;shape=link;rounded=0;orthogonalLoop=1;jettySize=auto;html=1;" parent="1" source="215" edge="1">
                    <mxGeometry relative="1" as="geometry">
                        <mxPoint x="1080" y="700" as="targetPoint"/>
                    </mxGeometry>
                </mxCell>
                <mxCell id="215" value="&lt;font style=&quot;font-size: 8px&quot;&gt;Nancy Landgraab&lt;/font&gt;&lt;br&gt;&lt;span style=&quot;font-size: 5px&quot;&gt;CEO of a Mega Corporation&lt;/span&gt;" style="rounded=1;whiteSpace=wrap;html=1;fontColor=#ffffff;fillColor=none;strokeColor=#FF0080;" parent="1" vertex="1">
                    <mxGeometry x="1040" y="760" width="80" height="40" as="geometry"/>
                </mxCell>
                <mxCell id="228" style="edgeStyle=orthogonalEdgeStyle;shape=link;rounded=0;orthogonalLoop=1;jettySize=auto;html=1;" parent="1" source="216" edge="1">
                    <mxGeometry relative="1" as="geometry">
                        <mxPoint x="1080" y="860" as="targetPoint"/>
                    </mxGeometry>
                </mxCell>
                <mxCell id="216" value="&lt;font style=&quot;font-size: 8px&quot;&gt;Adrien Landgraab&lt;/font&gt;" style="rounded=1;whiteSpace=wrap;html=1;fontColor=#ffffff;fillColor=none;strokeColor=#00FFFF;" parent="1" vertex="1">
                    <mxGeometry x="1040" y="920" width="80" height="40" as="geometry"/>
                </mxCell>
                <mxCell id="222" style="edgeStyle=orthogonalEdgeStyle;shape=link;rounded=0;orthogonalLoop=1;jettySize=auto;html=1;" parent="1" source="217" edge="1">
                    <mxGeometry relative="1" as="geometry">
                        <mxPoint x="1020" y="620" as="targetPoint"/>
                    </mxGeometry>
                </mxCell>
                <mxCell id="223" style="edgeStyle=orthogonalEdgeStyle;shape=link;rounded=0;orthogonalLoop=1;jettySize=auto;html=1;entryX=0;entryY=0.5;entryDx=0;entryDy=0;" parent="1" source="217" target="218" edge="1">
                    <mxGeometry relative="1" as="geometry"/>
                </mxCell>
                <mxCell id="217" value="&lt;font style=&quot;font-size: 8px&quot;&gt;Chester Landgraab&lt;/font&gt;&lt;br&gt;&lt;span style=&quot;font-size: 5px&quot;&gt;World-Renowned Surgeon&lt;/span&gt;" style="rounded=1;whiteSpace=wrap;html=1;fontColor=#ffffff;fillColor=none;strokeColor=#00FFFF;" parent="1" vertex="1">
                    <mxGeometry x="980" y="680" width="80" height="40" as="geometry"/>
                </mxCell>
                <mxCell id="218" value="&lt;font style=&quot;font-size: 8px&quot;&gt;Queenie Landgraab&lt;/font&gt;&lt;br&gt;&lt;span style=&quot;font-size: 5px&quot;&gt;Swimming in Cash&lt;/span&gt;" style="rounded=1;whiteSpace=wrap;html=1;fontColor=#ffffff;fillColor=none;strokeColor=#FF0080;" parent="1" vertex="1">
                    <mxGeometry x="1100" y="680" width="80" height="40" as="geometry"/>
                </mxCell>
                <mxCell id="221" style="edgeStyle=orthogonalEdgeStyle;shape=link;rounded=0;orthogonalLoop=1;jettySize=auto;html=1;entryX=0;entryY=0.5;entryDx=0;entryDy=0;" parent="1" source="219" target="220" edge="1">
                    <mxGeometry relative="1" as="geometry"/>
                </mxCell>
                <mxCell id="219" value="&lt;font style=&quot;font-size: 8px&quot;&gt;Kermit Landgraab&lt;/font&gt;" style="rounded=1;whiteSpace=wrap;html=1;fontColor=#ffffff;fillColor=none;strokeColor=#00FFFF;" parent="1" vertex="1">
                    <mxGeometry x="920" y="600" width="80" height="40" as="geometry"/>
                </mxCell>
                <mxCell id="220" value="&lt;font style=&quot;font-size: 8px&quot;&gt;Kitty Landgraab&lt;/font&gt;&lt;br&gt;&lt;span style=&quot;font-size: 5px&quot;&gt;The Perfect Garden&lt;/span&gt;" style="rounded=1;whiteSpace=wrap;html=1;fontColor=#ffffff;fillColor=none;strokeColor=#FF0080;" parent="1" vertex="1">
                    <mxGeometry x="1040" y="600" width="80" height="40" as="geometry"/>
                </mxCell>
                <mxCell id="239" style="edgeStyle=orthogonalEdgeStyle;shape=link;rounded=0;orthogonalLoop=1;jettySize=auto;html=1;entryX=0;entryY=0.5;entryDx=0;entryDy=0;" parent="1" source="229" target="231" edge="1">
                    <mxGeometry relative="1" as="geometry"/>
                </mxCell>
                <mxCell id="229" value="&lt;font style=&quot;font-size: 8px&quot;&gt;Malcolm Landgraab II&lt;/font&gt;" style="rounded=1;whiteSpace=wrap;html=1;fontColor=#ffffff;fillColor=none;strokeColor=#00FFFF;" parent="1" vertex="1">
                    <mxGeometry x="1200" y="760" width="80" height="40" as="geometry"/>
                </mxCell>
                <mxCell id="236" style="edgeStyle=orthogonalEdgeStyle;shape=link;rounded=0;orthogonalLoop=1;jettySize=auto;html=1;entryX=0;entryY=0.5;entryDx=0;entryDy=0;" parent="1" source="230" target="233" edge="1">
                    <mxGeometry relative="1" as="geometry"/>
                </mxCell>
                <mxCell id="240" style="edgeStyle=orthogonalEdgeStyle;shape=link;rounded=0;orthogonalLoop=1;jettySize=auto;html=1;" parent="1" source="230" edge="1">
                    <mxGeometry relative="1" as="geometry">
                        <mxPoint x="1300" y="780" as="targetPoint"/>
                    </mxGeometry>
                </mxCell>
                <mxCell id="230" value="&lt;font style=&quot;font-size: 8px&quot;&gt;Malcolm Landgraab III&lt;/font&gt;" style="rounded=1;whiteSpace=wrap;html=1;fontColor=#ffffff;fillColor=none;strokeColor=#00FFFF;" parent="1" vertex="1">
                    <mxGeometry x="1260" y="840" width="80" height="40" as="geometry"/>
                </mxCell>
                <mxCell id="231" value="&lt;font style=&quot;font-size: 8px&quot;&gt;Marion Landgraab&lt;/font&gt;" style="rounded=1;whiteSpace=wrap;html=1;fontColor=#ffffff;fillColor=none;strokeColor=#FF0080;" parent="1" vertex="1">
                    <mxGeometry x="1320" y="760" width="80" height="40" as="geometry"/>
                </mxCell>
                <mxCell id="241" style="edgeStyle=orthogonalEdgeStyle;shape=link;rounded=0;orthogonalLoop=1;jettySize=auto;html=1;" parent="1" source="232" edge="1">
                    <mxGeometry relative="1" as="geometry">
                        <mxPoint x="1410" y="860" as="targetPoint"/>
                    </mxGeometry>
                </mxCell>
                <mxCell id="232" value="&lt;font style=&quot;font-size: 8px&quot;&gt;Malcolm Landgraab IV&lt;/font&gt;" style="rounded=1;whiteSpace=wrap;html=1;fontColor=#ffffff;fillColor=none;strokeColor=#00FFFF;" parent="1" vertex="1">
                    <mxGeometry x="1370" y="920" width="80" height="40" as="geometry"/>
                </mxCell>
                <mxCell id="238" style="edgeStyle=orthogonalEdgeStyle;shape=link;rounded=0;orthogonalLoop=1;jettySize=auto;html=1;" parent="1" source="233" edge="1">
                    <mxGeometry relative="1" as="geometry">
                        <mxPoint x="1540" y="780" as="targetPoint"/>
                    </mxGeometry>
                </mxCell>
                <mxCell id="233" value="&lt;font style=&quot;font-size: 8px&quot;&gt;Margaret&amp;nbsp;Buckingham&lt;/font&gt;" style="rounded=1;whiteSpace=wrap;html=1;fontColor=#ffffff;fillColor=none;strokeColor=#FF0080;" parent="1" vertex="1">
                    <mxGeometry x="1500" y="840" width="80" height="40" as="geometry"/>
                </mxCell>
                <mxCell id="237" style="edgeStyle=orthogonalEdgeStyle;shape=link;rounded=0;orthogonalLoop=1;jettySize=auto;html=1;entryX=0;entryY=0.5;entryDx=0;entryDy=0;" parent="1" source="234" target="235" edge="1">
                    <mxGeometry relative="1" as="geometry"/>
                </mxCell>
                <mxCell id="234" value="&lt;font style=&quot;font-size: 8px&quot;&gt;Virginia Buckingham&lt;/font&gt;" style="rounded=1;whiteSpace=wrap;html=1;fontColor=#ffffff;fillColor=none;strokeColor=#FF0080;" parent="1" vertex="1">
                    <mxGeometry x="1440" y="760" width="80" height="40" as="geometry"/>
                </mxCell>
                <mxCell id="235" value="&lt;font style=&quot;font-size: 8px&quot;&gt;Blair Buckingham&lt;/font&gt;" style="rounded=1;whiteSpace=wrap;html=1;fontColor=#ffffff;fillColor=none;strokeColor=#00FFFF;" parent="1" vertex="1">
                    <mxGeometry x="1560" y="760" width="80" height="40" as="geometry"/>
                </mxCell>
                <mxCell id="250" style="edgeStyle=orthogonalEdgeStyle;shape=link;rounded=0;orthogonalLoop=1;jettySize=auto;html=1;exitX=0.5;exitY=0;exitDx=0;exitDy=0;entryX=0.5;entryY=0;entryDx=0;entryDy=0;" parent="1" source="242" target="243" edge="1">
                    <mxGeometry relative="1" as="geometry"/>
                </mxCell>
                <mxCell id="242" value="&lt;span style=&quot;font-size: 10px&quot;&gt;Zelda Mae&lt;/span&gt;&lt;br&gt;&lt;span style=&quot;font-size: 5px&quot;&gt;Rock Star&lt;/span&gt;" style="rounded=1;whiteSpace=wrap;html=1;fontColor=#ffffff;fillColor=none;strokeColor=#FF0080;" parent="1" vertex="1">
                    <mxGeometry x="480" y="920" width="80" height="40" as="geometry"/>
                </mxCell>
                <mxCell id="247" style="edgeStyle=orthogonalEdgeStyle;shape=link;rounded=0;orthogonalLoop=1;jettySize=auto;html=1;entryX=0;entryY=0.5;entryDx=0;entryDy=0;" parent="1" source="243" target="245" edge="1">
                    <mxGeometry relative="1" as="geometry"/>
                </mxCell>
                <mxCell id="243" value="&lt;span style=&quot;font-size: 10px&quot;&gt;Illiana Mae&lt;/span&gt;&lt;br&gt;&lt;span style=&quot;font-size: 5px&quot;&gt;CEO of Mega Corporation&lt;/span&gt;" style="rounded=1;whiteSpace=wrap;html=1;fontColor=#ffffff;fillColor=none;strokeColor=#FF0080;" parent="1" vertex="1">
                    <mxGeometry x="600" y="920" width="80" height="40" as="geometry"/>
                </mxCell>
                <mxCell id="249" style="edgeStyle=orthogonalEdgeStyle;shape=link;rounded=0;orthogonalLoop=1;jettySize=auto;html=1;" parent="1" source="244" edge="1">
                    <mxGeometry relative="1" as="geometry">
                        <mxPoint x="700" y="940" as="targetPoint"/>
                        <Array as="points">
                            <mxPoint x="760" y="980"/>
                            <mxPoint x="700" y="980"/>
                        </Array>
                    </mxGeometry>
                </mxCell>
                <mxCell id="244" value="&lt;span style=&quot;font-size: 10px&quot;&gt;Kaylynn Langerak&lt;/span&gt;" style="rounded=1;whiteSpace=wrap;html=1;fontColor=#ffffff;fillColor=none;strokeColor=#FF0080;" parent="1" vertex="1">
                    <mxGeometry x="720" y="1000" width="80" height="40" as="geometry"/>
                </mxCell>
                <mxCell id="245" value="&lt;font style=&quot;font-size: 10px&quot;&gt;Dustin Langerak&lt;/font&gt;&lt;br&gt;&lt;span style=&quot;font-size: 5px&quot;&gt;Surrounded by Family&lt;/span&gt;" style="rounded=1;whiteSpace=wrap;html=1;fillColor=none;strokeColor=#00FFFF;" parent="1" vertex="1">
                    <mxGeometry x="720" y="920" width="80" height="40" as="geometry"/>
                </mxCell>
                <mxCell id="248" style="edgeStyle=orthogonalEdgeStyle;shape=link;rounded=0;orthogonalLoop=1;jettySize=auto;html=1;" parent="1" source="246" edge="1">
                    <mxGeometry relative="1" as="geometry">
                        <mxPoint x="700" y="940" as="targetPoint"/>
                        <Array as="points">
                            <mxPoint x="640" y="980"/>
                            <mxPoint x="700" y="980"/>
                        </Array>
                    </mxGeometry>
                </mxCell>
                <mxCell id="246" value="&lt;font style=&quot;font-size: 10px&quot;&gt;Parker Langerak&lt;/font&gt;" style="rounded=1;whiteSpace=wrap;html=1;fillColor=none;strokeColor=#00FFFF;" parent="1" vertex="1">
                    <mxGeometry x="600" y="1000" width="80" height="40" as="geometry"/>
                </mxCell>
                <mxCell id="251" value="&lt;span style=&quot;font-size: 10px&quot;&gt;Stiles McGraw&lt;/span&gt;&lt;br&gt;&lt;span style=&quot;font-size: 5px&quot;&gt;Swimming in Cash&lt;/span&gt;" style="rounded=1;whiteSpace=wrap;html=1;fillColor=none;strokeColor=#00FFFF;" parent="1" vertex="1">
                    <mxGeometry x="-800" y="880" width="80" height="40" as="geometry"/>
                </mxCell>
                <mxCell id="252" value="&lt;span style=&quot;font-size: 10px&quot;&gt;Tamara Donner&lt;/span&gt;&lt;br&gt;&lt;span style=&quot;font-size: 5px&quot;&gt;Living in the Lap of Luxury&lt;/span&gt;" style="rounded=1;whiteSpace=wrap;html=1;fontColor=#ffffff;fillColor=none;strokeColor=#FF0080;" parent="1" vertex="1">
                    <mxGeometry x="-680" y="880" width="80" height="40" as="geometry"/>
                </mxCell>
                <mxCell id="253" value="&lt;span style=&quot;font-size: 10px&quot;&gt;Emma Hatch&lt;/span&gt;&lt;br&gt;&lt;span style=&quot;font-size: 5px&quot;&gt;The Culinary Librarian&lt;/span&gt;" style="rounded=1;whiteSpace=wrap;html=1;fontColor=#ffffff;fillColor=none;strokeColor=#FF0080;" parent="1" vertex="1">
                    <mxGeometry x="-680" y="960" width="80" height="40" as="geometry"/>
                </mxCell>
                <mxCell id="254" value="&lt;span style=&quot;font-size: 10px&quot;&gt;Cycl0n3 Sw0rd&lt;/span&gt;&lt;br&gt;&lt;span style=&quot;font-size: 5px&quot;&gt;Chess Legend&lt;/span&gt;" style="rounded=1;whiteSpace=wrap;html=1;fillColor=none;strokeColor=#00FFFF;" parent="1" vertex="1">
                    <mxGeometry x="-800" y="960" width="80" height="40" as="geometry"/>
                </mxCell>
                <mxCell id="260" style="edgeStyle=orthogonalEdgeStyle;shape=link;rounded=0;orthogonalLoop=1;jettySize=auto;html=1;" parent="1" source="255" edge="1">
                    <mxGeometry relative="1" as="geometry">
                        <mxPoint x="-700" y="60" as="targetPoint"/>
                    </mxGeometry>
                </mxCell>
                <mxCell id="255" value="&lt;span style=&quot;font-size: 10px&quot;&gt;Blair Wainwright&lt;/span&gt;&lt;br&gt;&lt;span style=&quot;font-size: 5px&quot;&gt;International Super Spy&lt;/span&gt;" style="rounded=1;whiteSpace=wrap;html=1;fontColor=#ffffff;fillColor=none;strokeColor=#FF0080;" parent="1" vertex="1">
                    <mxGeometry x="-740" y="120" width="80" height="40" as="geometry"/>
                </mxCell>
                <mxCell id="256" value="&lt;font style=&quot;font-size: 9px&quot;&gt;Susan Wainwright&lt;/font&gt;&lt;br&gt;&lt;span style=&quot;font-size: 5px&quot;&gt;Chess Legend&lt;/span&gt;" style="rounded=1;whiteSpace=wrap;html=1;fontColor=#ffffff;fillColor=none;strokeColor=#FF0080;" parent="1" vertex="1">
                    <mxGeometry x="-680" y="40" width="80" height="40" as="geometry"/>
                </mxCell>
                <mxCell id="259" style="edgeStyle=orthogonalEdgeStyle;shape=link;rounded=0;orthogonalLoop=1;jettySize=auto;html=1;" parent="1" source="258" target="256" edge="1">
                    <mxGeometry relative="1" as="geometry"/>
                </mxCell>
                <mxCell id="258" value="&lt;span style=&quot;font-size: 10px&quot;&gt;Boyd Wainwright&lt;/span&gt;&lt;br&gt;&lt;font style=&quot;font-size: 4px&quot;&gt;Become a Creature-Robot Cross Breeder&lt;/font&gt;" style="rounded=1;whiteSpace=wrap;html=1;fillColor=none;strokeColor=#00FFFF;" parent="1" vertex="1">
                    <mxGeometry x="-800" y="40" width="80" height="40" as="geometry"/>
                </mxCell>
                <mxCell id="264" style="edgeStyle=orthogonalEdgeStyle;shape=link;rounded=0;orthogonalLoop=1;jettySize=auto;html=1;exitX=0.5;exitY=1;exitDx=0;exitDy=0;entryX=0.5;entryY=0;entryDx=0;entryDy=0;" parent="1" source="261" target="262" edge="1">
                    <mxGeometry relative="1" as="geometry"/>
                </mxCell>
                <mxCell id="261" value="&lt;span style=&quot;font-size: 10px&quot;&gt;Yumi Sekemoto&lt;/span&gt;&lt;br&gt;&lt;span style=&quot;font-size: 5px&quot;&gt;Surrounded by Family&lt;/span&gt;" style="rounded=1;whiteSpace=wrap;html=1;fontColor=#ffffff;fillColor=none;strokeColor=#FF0080;" parent="1" vertex="1">
                    <mxGeometry x="-800" y="560" width="80" height="40" as="geometry"/>
                </mxCell>
                <mxCell id="265" style="edgeStyle=orthogonalEdgeStyle;shape=link;rounded=0;orthogonalLoop=1;jettySize=auto;html=1;exitX=0.5;exitY=1;exitDx=0;exitDy=0;" parent="1" source="262" target="263" edge="1">
                    <mxGeometry relative="1" as="geometry"/>
                </mxCell>
                <mxCell id="262" value="&lt;font style=&quot;font-size: 8px&quot;&gt;Leighton Sekemoto&lt;/font&gt;&lt;br&gt;&lt;span style=&quot;font-size: 5px&quot;&gt;Surrounded by Family&lt;/span&gt;" style="rounded=1;whiteSpace=wrap;html=1;fillColor=none;strokeColor=#00FFFF;" parent="1" vertex="1">
                    <mxGeometry x="-800" y="640" width="80" height="40" as="geometry"/>
                </mxCell>
                <mxCell id="263" value="&lt;span style=&quot;font-size: 10px&quot;&gt;Sam Sekemoto&lt;/span&gt;" style="rounded=1;whiteSpace=wrap;html=1;fillColor=none;strokeColor=#00FFFF;" parent="1" vertex="1">
                    <mxGeometry x="-800" y="720" width="80" height="40" as="geometry"/>
                </mxCell>
                <mxCell id="267" value="&lt;span style=&quot;font-size: 10px&quot;&gt;Hank Goddard&lt;/span&gt;&lt;br&gt;&lt;span style=&quot;font-size: 5px&quot;&gt;Heartbreaker&lt;/span&gt;" style="rounded=1;whiteSpace=wrap;html=1;fillColor=none;strokeColor=#00FFFF;" parent="1" vertex="1">
                    <mxGeometry x="-120" y="1040" width="80" height="40" as="geometry"/>
                </mxCell>
                <mxCell id="269" style="edgeStyle=orthogonalEdgeStyle;shape=link;rounded=0;orthogonalLoop=1;jettySize=auto;html=1;entryX=0;entryY=0.5;entryDx=0;entryDy=0;" parent="1" source="268" target="267" edge="1">
                    <mxGeometry relative="1" as="geometry"/>
                </mxCell>
                <mxCell id="268" value="&lt;span style=&quot;font-size: 10px&quot;&gt;Pauline Wan&lt;/span&gt;&lt;br&gt;&lt;span style=&quot;font-size: 5px&quot;&gt;Heartbreaker&lt;/span&gt;" style="rounded=1;whiteSpace=wrap;html=1;fontColor=#ffffff;fillColor=none;strokeColor=#FF0080;" parent="1" vertex="1">
                    <mxGeometry x="-240" y="1040" width="80" height="40" as="geometry"/>
                </mxCell>
                <mxCell id="270" value="&lt;span style=&quot;font-size: 10px&quot;&gt;Thornton Wolff&lt;/span&gt;&lt;br&gt;&lt;span style=&quot;font-size: 5px&quot;&gt;CEO of a Mega Corporation&lt;/span&gt;" style="rounded=1;whiteSpace=wrap;html=1;fillColor=none;strokeColor=#00FFFF;" parent="1" vertex="1">
                    <mxGeometry x="-120" y="960" width="80" height="40" as="geometry"/>
                </mxCell>
                <mxCell id="272" style="edgeStyle=orthogonalEdgeStyle;shape=link;rounded=0;orthogonalLoop=1;jettySize=auto;html=1;entryX=0;entryY=0.5;entryDx=0;entryDy=0;" parent="1" source="271" target="270" edge="1">
                    <mxGeometry relative="1" as="geometry"/>
                </mxCell>
                <mxCell id="271" value="&lt;span style=&quot;font-size: 10px&quot;&gt;Morgana Wolff&lt;/span&gt;&lt;br&gt;&lt;span style=&quot;font-size: 5px&quot;&gt;Surrounded by Family&lt;/span&gt;" style="rounded=1;whiteSpace=wrap;html=1;fontColor=#ffffff;fillColor=none;strokeColor=#FF0080;" parent="1" vertex="1">
                    <mxGeometry x="-240" y="960" width="80" height="40" as="geometry"/>
                </mxCell>
                <mxCell id="273" value="&lt;span style=&quot;font-size: 10px&quot;&gt;Tori Kimura&lt;/span&gt;&lt;br&gt;&lt;span style=&quot;font-size: 5px&quot;&gt;Super Popular&lt;/span&gt;" style="rounded=1;whiteSpace=wrap;html=1;fontColor=#ffffff;fillColor=none;strokeColor=#FF0080;" parent="1" vertex="1">
                    <mxGeometry x="-560" y="960" width="80" height="40" as="geometry"/>
                </mxCell>
                <mxCell id="274" value="&lt;span style=&quot;font-size: 10px&quot;&gt;Monika Morris&lt;/span&gt;&lt;br&gt;&lt;font style=&quot;font-size: 4px&quot;&gt;Presenting the Perfect Private Aquarium&lt;/font&gt;" style="rounded=1;whiteSpace=wrap;html=1;fontColor=#ffffff;fillColor=none;strokeColor=#FF0080;" parent="1" vertex="1">
                    <mxGeometry x="-560" y="880" width="80" height="40" as="geometry"/>
                </mxCell>
                <mxCell id="276" value="&lt;font style=&quot;font-size: 8px&quot;&gt;Madison VanWatson&lt;/font&gt;&lt;br&gt;&lt;span style=&quot;font-size: 5px&quot;&gt;Living in the Lap of Luxury&lt;/span&gt;" style="rounded=1;whiteSpace=wrap;html=1;fontColor=#ffffff;fillColor=none;strokeColor=#FF0080;" parent="1" vertex="1">
                    <mxGeometry x="-680" y="1040" width="80" height="40" as="geometry"/>
                </mxCell>
                <mxCell id="277" value="&lt;span style=&quot;font-size: 8px&quot;&gt;Ayesha Ansari&lt;/span&gt;&lt;br&gt;&lt;span style=&quot;font-size: 5px&quot;&gt;Perfect Mind, Perfect Body&lt;/span&gt;" style="rounded=1;whiteSpace=wrap;html=1;fontColor=#ffffff;fillColor=none;strokeColor=#FF0080;" parent="1" vertex="1">
                    <mxGeometry x="-560" y="1040" width="80" height="40" as="geometry"/>
                </mxCell>
                <mxCell id="278" value="&lt;font style=&quot;font-size: 8px&quot;&gt;Jamie Jolina&lt;/font&gt;&lt;br&gt;&lt;span style=&quot;font-size: 5px&quot;&gt;World Renowned Surgeon&lt;/span&gt;" style="rounded=1;whiteSpace=wrap;html=1;fontColor=#ffffff;fillColor=none;strokeColor=#FF0080;" parent="1" vertex="1">
                    <mxGeometry x="-440" y="880" width="80" height="40" as="geometry"/>
                </mxCell>
                <mxCell id="279" value="&lt;span style=&quot;font-size: 10px&quot;&gt;Erin Kennedy&lt;/span&gt;&lt;br&gt;&lt;span style=&quot;font-size: 5px&quot;&gt;Become an Astronaut&lt;/span&gt;" style="rounded=1;whiteSpace=wrap;html=1;fontColor=#ffffff;fillColor=none;strokeColor=#FF0080;" parent="1" vertex="1">
                    <mxGeometry x="-440" y="960" width="80" height="40" as="geometry"/>
                </mxCell>
                <mxCell id="280" value="&lt;font&gt;&lt;font style=&quot;font-size: 9px&quot;&gt;Christopher Steel&lt;/font&gt;&lt;br&gt;&lt;font style=&quot;font-size: 4px&quot;&gt;Presenting the Perfect Private Aquarium&lt;/font&gt;&lt;/font&gt;" style="rounded=1;whiteSpace=wrap;html=1;fillColor=none;strokeColor=#00FFFF;" parent="1" vertex="1">
                    <mxGeometry x="-800" y="1040" width="80" height="40" as="geometry"/>
                </mxCell>
            </root>
        </mxGraphModel>
    </diagram>
</mxfile>